<svg width="202" height="518" viewBox="0 0 202 518" fill="none" xmlns="http://www.w3.org/2000/svg">
<path d="M130.267 18.9333C129.333 45.0666 126 56.6666 105.067 108.533C79.4667 171.733 76.8 179.467 76.8 190.533C76.9333 197.467 77.7333 202.8 79.7333 207.733C81.3333 211.733 82.4 215.333 82.1333 215.6C81.2 216.533 74.9333 206.133 73.8667 202C72.6667 196.8 71.6 199.2 68.5333 213.867C65.2 230.267 65.0667 258.533 68.4 270.4C71.8667 282.933 77.2 294.133 84.1333 303.333C89.4667 310.4 90.4 312.667 91.2 320.133C91.7333 324.8 93.2 333.6 94.5333 339.6C95.8667 345.6 96.5333 350.8 96.2667 351.2C95.8667 351.6 88.8 351.867 80.4 351.867C63.0667 351.867 60 353.333 60 361.867C60 368 63.8667 371.867 70 371.867H74.8L74.4 383.333L74 394.8L65.8667 397.733C41.7333 406.533 19.2 427.2 8.93333 450.133C2.26667 465.2 0 476.933 0 498.133V517.2H100.667H201.333V498.133C201.333 476.933 199.067 465.2 192.4 450.133C182.133 427.2 159.6 406.533 135.467 397.733L127.333 394.8L126.933 383.333L126.533 371.867H131.333C134.267 371.867 137.067 370.8 138.667 369.2C142.267 365.6 142.267 358.133 138.667 354.533C136.267 352.133 134.267 351.867 118.667 351.867C101.867 351.867 101.2 351.733 100.133 348.8C97.3333 341.2 94 308.667 94.1333 288.533C94.1333 256.133 99.0667 234.8 124 159.2C140.933 107.733 142.267 103.333 146.133 85.8666C149.333 71.5999 149.333 71.4666 148.667 80.5333C148.267 85.5999 146.4 96.6666 144.667 105.2C141.467 120.267 139.467 126.8 122.267 181.2C107.6 227.2 102.8 246.667 100 271.067C98.2667 285.6 99.3333 302.533 101.867 302.533C104 302.533 133.067 273.2 140.8 263.2C150.267 251.067 162.4 232.4 168 221.2C173.333 210.4 182.667 187.733 182.667 185.467C182.667 184.667 179.867 185.733 176.4 187.867C170.933 191.2 158.667 195.333 158.667 193.733C158.667 193.467 161.2 192 164.267 190.4C172.533 186.133 183.333 175.333 186.533 168C189.6 160.667 193.333 135.067 193.333 120.4C193.333 109.067 191.067 86.3999 189.467 82.1333C188.4 79.4666 188.133 79.5999 186.133 84.3999C183.733 90.2666 177.467 99.0666 176.4 98.1333C176.133 97.7333 177.467 94.2666 179.6 90.3999C182.933 83.9999 183.333 81.8666 183.333 70.5333C183.333 56.1333 181.333 50.1333 171.067 34.1333C160.933 18.2666 149.2 7.59992 135.867 1.99992L130.933 -7.58022e-05L130.267 18.9333ZM164.667 435.067C178 449.2 186.667 471.6 186.667 492.133V502.533H100.667H14.6667V492.533C14.6667 483.6 16.8 469.2 18.1333 469.2C18.4 469.2 21.8667 470.667 25.8667 472.4C46 481.333 70 482.4 87.3333 474.933C100.533 469.467 110.667 462.133 126.8 446.8C149.867 424.8 153.867 423.6 164.667 435.067Z" fill="black"/>
</svg>
