<svg width="825" height="518" viewBox="0 0 825 518" fill="none" xmlns="http://www.w3.org/2000/svg">
<path d="M130.267 19.7333C129.333 45.8666 126 57.4666 105.067 109.333C79.4667 172.533 76.8 180.267 76.8 191.333C76.9333 198.267 77.7333 203.6 79.7333 208.533C81.3333 212.533 82.4 216.133 82.1333 216.4C81.2 217.333 74.9333 206.933 73.8667 202.8C72.6667 197.6 71.6 200 68.5333 214.667C65.2 231.067 65.0667 259.333 68.4 271.2C71.8667 283.733 77.2 294.933 84.1333 304.133C89.4667 311.2 90.4 313.467 91.2 320.933C91.7333 325.6 93.2 334.4 94.5333 340.4C95.8667 346.4 96.5333 351.6 96.2667 352C95.8667 352.4 88.8 352.667 80.4 352.667C63.0667 352.667 60 354.133 60 362.667C60 368.8 63.8667 372.667 70 372.667H74.8L74.4 384.133L74 395.6L65.8667 398.533C41.7333 407.333 19.2 428 8.93333 450.933C2.26667 466 0 477.733 0 498.933V518H100.667H201.333V498.933C201.333 477.733 199.067 466 192.4 450.933C182.133 428 159.6 407.333 135.467 398.533L127.333 395.6L126.933 384.133L126.533 372.667H131.333C134.267 372.667 137.067 371.6 138.667 370C142.267 366.4 142.267 358.933 138.667 355.333C136.267 352.933 134.267 352.667 118.667 352.667C101.867 352.667 101.2 352.533 100.133 349.6C97.3333 342 94 309.467 94.1333 289.333C94.1333 256.933 99.0667 235.6 124 160C140.933 108.533 142.267 104.133 146.133 86.6666C149.333 72.4 149.333 72.2666 148.667 81.3333C148.267 86.4 146.4 97.4666 144.667 106C141.467 121.067 139.467 127.6 122.267 182C107.6 228 102.8 247.467 100 271.867C98.2667 286.4 99.3333 303.333 101.867 303.333C104 303.333 133.067 274 140.8 264C150.267 251.867 162.4 233.2 168 222C173.333 211.2 182.667 188.533 182.667 186.267C182.667 185.467 179.867 186.533 176.4 188.667C170.933 192 158.667 196.133 158.667 194.533C158.667 194.267 161.2 192.8 164.267 191.2C172.533 186.933 183.333 176.133 186.533 168.8C189.6 161.467 193.333 135.867 193.333 121.2C193.333 109.867 191.067 87.2 189.467 82.9333C188.4 80.2666 188.133 80.4 186.133 85.2C183.733 91.0666 177.467 99.8666 176.4 98.9333C176.133 98.5333 177.467 95.0666 179.6 91.2C182.933 84.8 183.333 82.6666 183.333 71.3333C183.333 56.9333 181.333 50.9333 171.067 34.9333C160.933 19.0666 149.2 8.39997 135.867 2.79997L130.933 0.799973L130.267 19.7333ZM164.667 435.867C178 450 186.667 472.4 186.667 492.933V503.333H100.667H14.6667V493.333C14.6667 484.4 16.8 470 18.1333 470C18.4 470 21.8667 471.467 25.8667 473.2C46 482.133 70 483.2 87.3333 475.733C100.533 470.267 110.667 462.933 126.8 447.6C149.867 425.6 153.867 424.4 164.667 435.867Z" fill="black"/>
<path d="M303.018 230.384C302.165 230.384 301.567 230.085 301.226 229.488C300.885 228.891 300.714 228.251 300.714 227.568C300.799 226.117 301.141 225.307 301.738 225.136C302.335 224.965 303.061 224.88 303.914 224.88C306.218 224.88 307.967 224.411 309.162 223.472C310.357 222.533 311.295 221.296 311.978 219.76C312.746 218.224 313.471 216.645 314.154 215.024L336.554 162.032C337.407 159.984 337.578 158.448 337.066 157.424C336.554 156.315 335.701 155.547 334.506 155.12C333.311 154.608 331.989 154.224 330.538 153.968C329.258 153.712 328.405 153.499 327.978 153.328C327.551 153.072 327.338 152.304 327.338 151.024C327.338 149.573 327.85 148.805 328.874 148.72C329.898 148.549 331.093 148.464 332.458 148.464C335.957 148.464 338.943 148.805 341.418 149.488C343.893 150.171 346.026 151.493 347.818 153.456C349.61 155.333 351.274 158.192 352.81 162.032L374.314 215.024C374.911 216.475 375.551 217.968 376.234 219.504C376.917 221.04 377.813 222.32 378.922 223.344C380.117 224.283 381.61 224.795 383.402 224.88C384.341 224.88 385.066 224.965 385.578 225.136C386.175 225.307 386.517 226.117 386.602 227.568C386.602 228.251 386.389 228.891 385.962 229.488C385.621 230.085 385.066 230.384 384.298 230.384C381.567 230.213 379.178 230.085 377.13 230C375.082 230 372.778 230 370.218 230C365.183 230 359.893 230.128 354.346 230.384C353.493 230.384 352.895 230.085 352.554 229.488C352.213 228.891 352.042 228.251 352.042 227.568C352.127 226.117 352.469 225.307 353.066 225.136C353.663 224.965 354.389 224.88 355.242 224.88C359.423 224.88 361.685 224.112 362.026 222.576C362.453 221.04 362.069 218.523 360.874 215.024L356.522 204.4H324.906C323.626 207.643 322.687 209.989 322.09 211.44C321.578 212.891 321.237 213.829 321.066 214.256C320.981 214.683 320.895 214.939 320.81 215.024C319.871 217.925 319.359 220.101 319.274 221.552C319.274 222.917 319.957 223.813 321.322 224.24C322.773 224.667 325.162 224.88 328.49 224.88C329.429 224.88 330.154 224.965 330.666 225.136C331.263 225.307 331.605 226.117 331.69 227.568C331.69 228.251 331.477 228.891 331.05 229.488C330.709 230.085 330.154 230.384 329.386 230.384C326.655 230.213 324.266 230.085 322.218 230C320.255 230 317.994 230 315.434 230C313.727 230 312.277 230 311.082 230C309.973 230.085 308.821 230.128 307.626 230.128C306.431 230.213 304.895 230.299 303.018 230.384ZM327.338 198.896H354.218L341.29 166H340.906L327.338 198.896ZM427.327 232.56C420.5 232.56 414.783 231.365 410.175 228.976C405.567 226.587 402.111 223.515 399.807 219.76C397.503 216.005 396.351 212.037 396.351 207.856V164.208C396.351 162.587 396.18 161.051 395.839 159.6C395.583 158.064 394.9 156.827 393.791 155.888C392.682 154.864 390.762 154.352 388.031 154.352C387.178 154.352 386.452 154.267 385.855 154.096C385.258 153.925 384.916 153.115 384.831 151.664C384.831 150.981 385.002 150.341 385.343 149.744C385.684 149.147 386.282 148.848 387.135 148.848C389.866 148.933 392.426 149.019 394.815 149.104C397.204 149.189 399.679 149.232 402.239 149.232C407.444 149.232 412.778 149.104 418.239 148.848C419.092 148.848 419.69 149.147 420.031 149.744C420.372 150.341 420.543 150.981 420.543 151.664C420.458 152.944 420.202 153.712 419.775 153.968C419.348 154.224 418.751 154.352 417.983 154.352C415.082 154.352 412.991 154.821 411.711 155.76C410.516 156.613 409.791 157.808 409.535 159.344C409.279 160.795 409.108 162.416 409.023 164.208V204.144C409.023 206.363 409.236 208.709 409.663 211.184C410.175 213.573 411.114 215.835 412.479 217.968C413.844 220.016 415.85 221.723 418.495 223.088C421.226 224.368 424.852 225.008 429.375 225.008C435.178 225.008 439.615 224.069 442.687 222.192C445.844 220.229 448.02 217.797 449.215 214.896C450.41 211.995 451.007 209.008 451.007 205.936V172.272C451.007 166.64 450.794 162.587 450.367 160.112C449.94 157.552 449.002 155.973 447.551 155.376C446.186 154.693 444.052 154.352 441.151 154.352C440.298 154.352 439.572 154.267 438.975 154.096C438.378 153.925 438.036 153.115 437.951 151.664C437.951 150.981 438.122 150.341 438.463 149.744C438.804 149.147 439.402 148.848 440.255 148.848C442.986 148.933 445.418 149.019 447.551 149.104C449.684 149.189 452.031 149.232 454.591 149.232C457.151 149.232 459.498 149.189 461.631 149.104C463.764 149.019 466.196 148.933 468.927 148.848C469.78 148.848 470.378 149.147 470.719 149.744C471.06 150.341 471.231 150.981 471.231 151.664C471.146 152.944 470.89 153.712 470.463 153.968C470.036 154.224 469.439 154.352 468.671 154.352C466.367 154.352 464.49 154.48 463.039 154.736C461.674 154.992 460.607 155.675 459.839 156.784C459.156 157.808 458.687 159.515 458.431 161.904C458.26 164.208 458.175 167.408 458.175 171.504V207.216C458.175 211.739 457.194 215.621 455.231 218.864C453.354 222.107 450.836 224.752 447.679 226.8C444.607 228.763 441.279 230.213 437.695 231.152C434.111 232.091 430.655 232.56 427.327 232.56ZM496.412 230.384C495.559 230.384 494.961 230.085 494.62 229.488C494.279 228.891 494.108 228.251 494.108 227.568C494.193 226.117 494.535 225.307 495.132 225.136C495.729 224.965 496.455 224.88 497.308 224.88C500.039 224.88 501.959 224.411 503.068 223.472C504.177 222.448 504.86 221.211 505.116 219.76C505.457 218.224 505.628 216.645 505.628 215.024V153.968H496.796C493.895 154.053 491.633 154.693 490.012 155.888C488.391 156.997 487.196 158.789 486.428 161.264C485.66 163.653 484.977 166.768 484.38 170.608C484.295 171.376 483.74 171.973 482.716 172.4C481.777 172.741 480.839 172.912 479.9 172.912C479.303 172.912 478.62 172.699 477.852 172.272C477.169 171.845 476.828 171.205 476.828 170.352L477.212 152.304C477.212 151.109 477.553 150.299 478.236 149.872C478.919 149.445 479.729 149.232 480.668 149.232H543.26C544.199 149.232 544.967 149.445 545.564 149.872C546.247 150.299 546.588 151.109 546.588 152.304L547.1 170.352C547.1 171.205 546.716 171.845 545.948 172.272C545.265 172.699 544.583 172.912 543.9 172.912C543.047 172.912 542.151 172.741 541.212 172.4C540.273 171.973 539.719 171.376 539.548 170.608C538.951 166.768 538.225 163.653 537.372 161.264C536.604 158.789 535.409 156.997 533.788 155.888C532.252 154.693 529.991 154.053 527.004 153.968H518.3V215.024C518.385 216.645 518.556 218.224 518.812 219.76C519.068 221.211 519.751 222.448 520.86 223.472C522.055 224.411 523.975 224.88 526.62 224.88C527.473 224.88 528.199 224.965 528.796 225.136C529.393 225.307 529.735 226.117 529.82 227.568C529.82 228.251 529.649 228.891 529.308 229.488C528.967 230.085 528.369 230.384 527.516 230.384C524.785 230.213 522.183 230.085 519.708 230C517.319 230 514.887 230 512.412 230C507.292 230 501.959 230.128 496.412 230.384ZM556.558 230.384C555.705 230.384 555.107 230.085 554.766 229.488C554.425 228.891 554.254 228.251 554.254 227.568C554.339 226.117 554.681 225.307 555.278 225.136C555.875 224.965 556.601 224.88 557.454 224.88C560.185 224.88 562.105 224.411 563.214 223.472C564.323 222.448 565.006 221.211 565.262 219.76C565.603 218.224 565.774 216.645 565.774 215.024V164.208C565.774 162.587 565.603 161.051 565.262 159.6C565.006 158.064 564.323 156.827 563.214 155.888C562.105 154.864 560.185 154.352 557.454 154.352C556.601 154.352 555.875 154.267 555.278 154.096C554.681 153.925 554.339 153.115 554.254 151.664C554.254 150.981 554.425 150.341 554.766 149.744C555.107 149.147 555.705 148.848 556.558 148.848C559.289 148.933 561.849 149.019 564.238 149.104C566.627 149.189 569.102 149.232 571.662 149.232C576.867 149.232 582.201 149.104 587.662 148.848C588.515 148.848 589.113 149.147 589.454 149.744C589.795 150.341 589.966 150.981 589.966 151.664C589.881 153.115 589.539 153.925 588.942 154.096C588.43 154.267 587.705 154.352 586.766 154.352C584.121 154.352 582.201 154.864 581.006 155.888C579.897 156.827 579.214 158.064 578.958 159.6C578.702 161.051 578.531 162.587 578.446 164.208V186.864H618.638V164.208C618.638 162.587 618.467 161.051 618.126 159.6C617.87 158.064 617.187 156.827 616.078 155.888C614.969 154.864 613.049 154.352 610.318 154.352C609.465 154.352 608.697 154.267 608.014 154.096C607.417 153.925 607.075 153.115 606.99 151.664C606.99 150.981 607.161 150.341 607.502 149.744C607.929 149.147 608.526 148.848 609.294 148.848C614.841 149.104 620.174 149.232 625.294 149.232C627.854 149.232 630.329 149.189 632.718 149.104C635.193 149.019 637.795 148.933 640.526 148.848C641.294 148.848 641.849 149.147 642.19 149.744C642.617 150.341 642.83 150.981 642.83 151.664C642.745 153.115 642.403 153.925 641.806 154.096C641.209 154.267 640.483 154.352 639.63 154.352C636.985 154.352 635.065 154.864 633.87 155.888C632.675 156.827 631.95 158.064 631.694 159.6C631.438 161.051 631.267 162.587 631.182 164.208V215.024C631.267 216.645 631.438 218.224 631.694 219.76C631.95 221.211 632.675 222.448 633.87 223.472C635.065 224.411 636.985 224.88 639.63 224.88C640.483 224.88 641.209 224.965 641.806 225.136C642.403 225.307 642.745 226.117 642.83 227.568C642.83 228.251 642.617 228.891 642.19 229.488C641.849 230.085 641.294 230.384 640.526 230.384C637.795 230.213 635.193 230.085 632.718 230C630.243 230 627.726 230 625.166 230C620.131 230 614.841 230.128 609.294 230.384C608.526 230.384 607.929 230.085 607.502 229.488C607.161 228.891 606.99 228.251 606.99 227.568C607.075 226.117 607.417 225.307 608.014 225.136C608.697 224.965 609.465 224.88 610.318 224.88C613.049 224.88 614.969 224.411 616.078 223.472C617.187 222.448 617.87 221.211 618.126 219.76C618.467 218.224 618.638 216.645 618.638 215.024V192.368H578.446V215.024C578.531 216.645 578.702 218.224 578.958 219.76C579.214 221.211 579.897 222.448 581.006 223.472C582.201 224.411 584.121 224.88 586.766 224.88C587.705 224.88 588.43 224.965 588.942 225.136C589.539 225.307 589.881 226.117 589.966 227.568C589.966 228.251 589.795 228.891 589.454 229.488C589.113 230.085 588.515 230.384 587.662 230.384C582.201 230.128 576.91 230 571.79 230C569.23 230 566.713 230 564.238 230C561.849 230.085 559.289 230.213 556.558 230.384ZM693.098 232.56C686.869 232.56 681.237 231.408 676.202 229.104C671.167 226.8 666.858 223.685 663.274 219.76C659.69 215.835 656.959 211.397 655.082 206.448C653.205 201.413 652.266 196.165 652.266 190.704C652.266 183.621 653.461 177.349 655.85 171.888C658.325 166.427 661.567 161.819 665.578 158.064C669.589 154.309 673.983 151.493 678.762 149.616C683.626 147.653 688.405 146.672 693.098 146.672C699.498 146.672 705.215 147.824 710.25 150.128C715.37 152.432 719.722 155.547 723.306 159.472C726.89 163.397 729.621 167.877 731.498 172.912C733.375 177.861 734.314 183.024 734.314 188.4C734.314 195.483 733.077 201.755 730.602 207.216C728.127 212.677 724.842 217.285 720.746 221.04C716.65 224.795 712.17 227.653 707.306 229.616C702.527 231.579 697.791 232.56 693.098 232.56ZM692.97 226.928C699.029 226.928 703.978 225.136 707.818 221.552C711.658 217.968 714.474 213.275 716.266 207.472C718.143 201.584 719.082 195.227 719.082 188.4C719.082 182 718.101 176.069 716.138 170.608C714.261 165.061 711.402 160.624 707.562 157.296C703.722 153.883 698.858 152.176 692.97 152.176C686.997 152.176 682.09 153.968 678.25 157.552C674.495 161.051 671.722 165.701 669.93 171.504C668.138 177.221 667.242 183.493 667.242 190.32C667.242 196.72 668.138 202.736 669.93 208.368C671.807 213.915 674.666 218.395 678.506 221.808C682.346 225.221 687.167 226.928 692.97 226.928ZM746.683 230.384C745.83 230.384 745.232 230.085 744.891 229.488C744.55 228.891 744.379 228.251 744.379 227.568C744.464 226.117 744.806 225.307 745.403 225.136C746 224.965 746.726 224.88 747.579 224.88C750.31 224.88 752.23 224.411 753.339 223.472C754.448 222.448 755.131 221.211 755.387 219.76C755.728 218.224 755.899 216.645 755.899 215.024V164.336C755.899 162.715 755.728 161.136 755.387 159.6C755.131 158.064 754.448 156.827 753.339 155.888C752.23 154.864 750.31 154.352 747.579 154.352C746.726 154.352 746 154.267 745.403 154.096C744.806 153.925 744.464 153.115 744.379 151.664C744.379 150.981 744.55 150.341 744.891 149.744C745.232 149.147 745.83 148.848 746.683 148.848C749.414 148.933 751.974 149.019 754.363 149.104C756.838 149.189 759.355 149.232 761.915 149.232H783.931C790.843 149.317 796.432 150.384 800.699 152.432C805.051 154.48 808.208 157.083 810.171 160.24C812.134 163.397 813.115 166.683 813.115 170.096C813.115 174.619 811.28 178.885 807.611 182.896C804.027 186.907 798.95 189.765 792.379 191.472C795.622 196.592 798.907 201.755 802.235 206.96C805.563 212.08 809.403 216.901 813.755 221.424C814.95 222.363 816.102 223.131 817.211 223.728C818.406 224.325 819.814 224.709 821.435 224.88C822.118 224.965 822.8 225.093 823.483 225.264C824.166 225.349 824.55 226.117 824.635 227.568C824.635 228.251 824.464 228.891 824.123 229.488C823.782 230.085 823.184 230.384 822.331 230.384C820.539 230.299 819.088 230.213 817.979 230.128C816.955 230.128 815.931 230.085 814.907 230C813.883 230 812.518 230 810.811 230C807.312 229.317 804.326 228.08 801.851 226.288C799.462 224.496 797.115 222.021 794.811 218.864C792.422 215.621 790.203 212.336 788.155 209.008C786.107 205.68 784.102 202.437 782.139 199.28C781.03 197.488 779.878 196.208 778.683 195.44C777.574 194.587 775.44 194.16 772.283 194.16H768.571V215.024C768.656 216.645 768.827 218.224 769.083 219.76C769.339 221.211 770.022 222.448 771.131 223.472C772.326 224.411 774.246 224.88 776.891 224.88C777.744 224.88 778.47 224.965 779.067 225.136C779.664 225.307 780.006 226.117 780.091 227.568C780.091 228.251 779.92 228.891 779.579 229.488C779.238 230.085 778.64 230.384 777.787 230.384C772.326 230.128 766.992 230 761.787 230C759.227 230 756.752 230 754.363 230C751.974 230.085 749.414 230.213 746.683 230.384ZM768.571 189.168H779.835C784.187 189.168 787.6 188.571 790.075 187.376C792.635 186.181 794.555 184.645 795.835 182.768C797.115 180.891 797.926 178.928 798.267 176.88C798.694 174.832 798.907 172.955 798.907 171.248C798.907 168.432 798.267 165.701 796.987 163.056C795.792 160.411 793.616 158.235 790.459 156.528C787.387 154.821 783.078 153.968 777.531 153.968C773.862 153.968 771.43 154.693 770.235 156.144C769.126 157.509 768.571 160.325 768.571 164.592V189.168ZM455.868 376.384C455.014 376.384 454.417 376.085 454.076 375.488C453.734 374.891 453.564 374.251 453.564 373.568C453.649 372.117 453.99 371.307 454.588 371.136C455.185 370.965 455.91 370.88 456.764 370.88C459.494 370.88 461.414 370.411 462.524 369.472C463.633 368.448 464.316 367.211 464.572 365.76C464.913 364.224 465.126 362.645 465.212 361.024V310.208C465.126 308.587 464.913 307.051 464.572 305.6C464.316 304.064 463.633 302.827 462.524 301.888C461.414 300.864 459.494 300.352 456.764 300.352C455.91 300.352 455.185 300.267 454.588 300.096C453.99 299.925 453.649 299.115 453.564 297.664C453.564 296.981 453.734 296.341 454.076 295.744C454.417 295.147 455.014 294.848 455.868 294.848C458.598 294.933 461.158 295.019 463.548 295.104C466.022 295.189 468.54 295.232 471.1 295.232C476.305 295.232 481.638 295.104 487.1 294.848C487.868 294.848 488.422 295.147 488.764 295.744C489.19 296.341 489.404 296.981 489.404 297.664C489.318 299.115 488.977 299.925 488.38 300.096C487.782 300.267 487.014 300.352 486.076 300.352C483.43 300.352 481.51 300.864 480.316 301.888C479.206 302.827 478.524 304.064 478.268 305.6C478.012 307.051 477.841 308.587 477.756 310.208V361.024C477.841 362.645 478.012 364.224 478.268 365.76C478.524 367.211 479.206 368.448 480.316 369.472C481.51 370.411 483.43 370.88 486.076 370.88C487.014 370.88 487.782 370.965 488.38 371.136C488.977 371.307 489.318 372.117 489.404 373.568C489.404 374.251 489.19 374.891 488.764 375.488C488.422 376.085 487.868 376.384 487.1 376.384C481.638 376.128 476.348 376 471.228 376C468.668 376 466.15 376 463.676 376C461.201 376.085 458.598 376.213 455.868 376.384ZM502.749 376.384C501.895 376.384 501.298 376.085 500.957 375.488C500.615 374.891 500.445 374.251 500.445 373.568C500.53 372.117 500.871 371.307 501.469 371.136C502.066 370.965 502.791 370.88 503.645 370.88C506.375 370.88 508.253 370.411 509.277 369.472C510.386 368.448 511.069 367.211 511.325 365.76C511.581 364.224 511.708 362.645 511.708 361.024L511.965 310.208C511.965 306.197 511.282 303.637 509.917 302.528C508.551 301.419 506.375 300.565 503.389 299.968C502.109 299.712 501.255 299.499 500.829 299.328C500.402 299.072 500.189 298.304 500.189 297.024C500.189 295.573 500.701 294.805 501.725 294.72C502.749 294.549 503.943 294.464 505.309 294.464C510.087 294.464 513.927 294.848 516.829 295.616C519.815 296.384 522.418 297.749 524.637 299.712C526.941 301.675 529.415 304.448 532.061 308.032L567.132 354.112H567.517L567.261 310.208C567.261 308.587 567.133 307.051 566.877 305.6C566.621 304.064 565.938 302.827 564.829 301.888C563.805 300.864 561.927 300.352 559.197 300.352C558.343 300.352 557.618 300.267 557.021 300.096C556.423 299.925 556.039 299.115 555.869 297.664C555.869 296.981 556.039 296.341 556.381 295.744C556.807 295.147 557.405 294.848 558.173 294.848C560.05 294.933 561.543 295.019 562.653 295.104C563.847 295.104 564.999 295.147 566.109 295.232C567.303 295.232 568.754 295.232 570.461 295.232C572.167 295.232 573.575 295.232 574.685 295.232C575.794 295.147 576.903 295.104 578.013 295.104C579.207 295.019 580.701 294.933 582.493 294.848C583.346 294.848 583.943 295.147 584.285 295.744C584.626 296.341 584.797 296.981 584.797 297.664C584.711 299.115 584.37 299.925 583.773 300.096C583.261 300.267 582.535 300.352 581.597 300.352C578.951 300.352 577.074 300.864 575.965 301.888C574.855 302.827 574.173 304.064 573.917 305.6C573.746 307.051 573.618 308.587 573.533 310.208L573.277 374.72C573.191 375.403 572.765 375.829 571.997 376C571.314 376.256 570.674 376.384 570.076 376.384C568.455 376.384 567.218 375.829 566.365 374.72L518.109 310.208H517.725L517.981 361.024C518.066 362.645 518.194 364.224 518.365 365.76C518.621 367.211 519.303 368.448 520.413 369.472C521.522 370.411 523.399 370.88 526.045 370.88C526.983 370.88 527.751 370.965 528.349 371.136C528.946 371.307 529.287 372.117 529.373 373.568C529.373 374.251 529.159 374.891 528.733 375.488C528.391 376.085 527.837 376.384 527.069 376.384C525.277 376.299 523.741 376.213 522.461 376.128C521.266 376.128 520.071 376.085 518.877 376C517.767 376 516.359 376 514.653 376C512.946 376 511.538 376 510.429 376C509.405 376.085 508.338 376.128 507.229 376.128C506.119 376.213 504.626 376.299 502.749 376.384ZM596.996 376.384C596.142 376.384 595.545 376.085 595.204 375.488C594.862 374.891 594.692 374.251 594.692 373.568C594.777 372.117 595.118 371.307 595.716 371.136C596.313 370.965 597.038 370.88 597.892 370.88C600.622 370.88 602.542 370.411 603.652 369.472C604.761 368.448 605.444 367.211 605.7 365.76C606.041 364.224 606.212 362.645 606.212 361.024V310.208C606.212 308.587 606.041 307.051 605.7 305.6C605.444 304.064 604.761 302.827 603.652 301.888C602.542 300.864 600.622 300.352 597.892 300.352C597.038 300.352 596.313 300.267 595.716 300.096C595.118 299.925 594.777 299.115 594.692 297.664C594.692 296.981 594.862 296.341 595.204 295.744C595.545 295.147 596.142 294.848 596.996 294.848C599.726 294.933 602.286 295.019 604.676 295.104C607.065 295.189 609.54 295.232 612.1 295.232C617.305 295.232 622.638 295.104 628.1 294.848C628.953 294.848 629.55 295.147 629.892 295.744C630.233 296.341 630.404 296.981 630.404 297.664C630.318 299.115 629.977 299.925 629.38 300.096C628.868 300.267 628.142 300.352 627.204 300.352C624.558 300.352 622.638 300.864 621.444 301.888C620.334 302.827 619.652 304.064 619.396 305.6C619.14 307.051 618.969 308.587 618.884 310.208V333.376C620.334 333.035 621.998 332.181 623.876 330.816C625.838 329.365 627.801 327.829 629.764 326.208C633.006 323.221 636.164 320.021 639.236 316.608C642.308 313.109 645.166 309.781 647.812 306.624C651.225 302.784 650.841 300.736 646.66 300.48C645.721 300.395 645.124 299.499 644.868 297.792C644.868 297.024 645.081 296.341 645.508 295.744C645.934 295.147 646.489 294.848 647.172 294.848C649.39 295.019 651.737 295.147 654.212 295.232C656.686 295.232 659.033 295.232 661.252 295.232C662.958 295.232 664.921 295.189 667.14 295.104C669.358 295.019 671.278 294.933 672.9 294.848C673.753 294.848 674.35 295.147 674.692 295.744C675.118 296.341 675.332 297.024 675.332 297.792C675.246 299.072 674.948 299.84 674.436 300.096C674.009 300.352 673.454 300.48 672.772 300.48C669.614 300.309 666.5 300.821 663.428 302.016C660.356 303.211 657.07 305.557 653.572 309.056C652.462 310.251 651.012 311.787 649.22 313.664C647.513 315.456 645.678 317.333 643.716 319.296C641.838 321.259 640.046 323.093 638.34 324.8C636.718 326.507 635.396 327.915 634.372 329.024C633.348 330.133 632.836 330.688 632.836 330.688C637.87 336.747 642.948 342.336 648.068 347.456C653.273 352.576 657.71 357.099 661.38 361.024C664.281 363.925 666.628 366.229 668.42 367.936C670.297 369.557 672.686 370.539 675.588 370.88C676.27 370.965 676.953 371.093 677.636 371.264C678.318 371.349 678.702 372.117 678.788 373.568C678.788 374.251 678.617 374.891 678.276 375.488C677.934 376.085 677.337 376.384 676.484 376.384C674.692 376.299 673.284 376.213 672.26 376.128C671.321 376.128 670.382 376.085 669.444 376C668.59 376 667.31 376 665.604 376H657.412C652.718 370.795 647.897 365.419 642.948 359.872C638.084 354.325 632.836 348.309 627.204 341.824C625.668 340.032 624.217 338.752 622.852 337.984C621.572 337.216 620.249 336.789 618.884 336.704V361.024C618.969 362.645 619.14 364.224 619.396 365.76C619.652 367.211 620.334 368.448 621.444 369.472C622.638 370.411 624.558 370.88 627.204 370.88C628.142 370.88 628.868 370.965 629.38 371.136C629.977 371.307 630.318 372.117 630.404 373.568C630.404 374.251 630.233 374.891 629.892 375.488C629.55 376.085 628.953 376.384 628.1 376.384C622.638 376.128 617.348 376 612.228 376C609.668 376 607.15 376 604.676 376C602.286 376.085 599.726 376.213 596.996 376.384Z" fill="black"/>
</svg>
